<?xml version="1.0" encoding="utf-8"?>
<!-- Generator: Adobe Illustrator 22.0.1, SVG Export Plug-In . SVG Version: 6.00 Build 0)  -->
<svg version="1.1" id="Capa_1" xmlns="http://www.w3.org/2000/svg" xmlns:xlink="http://www.w3.org/1999/xlink" x="0px" y="0px"
	 viewBox="0 0 45 45" style="enable-background:new 0 0 45 45;" xml:space="preserve">
<style type="text/css">
	.st0{fill:#FFF4FF;}
	.st1{fill:#A51414;}
</style>
<circle class="st0" cx="22.5" cy="22.5" r="16.6"/>
<path class="st1" d="M22.5,0C10.1,0,0,10.1,0,22.5S10.1,45,22.5,45S45,34.9,45,22.5S34.9,0,22.5,0z M33.5,28.4
	c0.4,0.4,0.4,1.1,0,1.5l-3.6,3.6c-0.4,0.4-1.1,0.4-1.5,0l-5.9-6l-5.9,6c-0.4,0.4-1.1,0.4-1.5,0l-3.6-3.6c-0.4-0.4-0.4-1.1,0-1.5
	l6-5.9l-6-5.9c-0.4-0.4-0.4-1.1,0-1.5l3.6-3.6c0.4-0.4,1.1-0.4,1.5,0l5.9,6l5.9-6c0.4-0.4,1.1-0.4,1.5,0l3.6,3.6
	c0.4,0.4,0.4,1.1,0,1.5l-6,5.9L33.5,28.4z"/>
</svg>
