<?xml version="1.0" encoding="utf-8"?>
<!-- Generator: Adobe Illustrator 22.0.0, SVG Export Plug-In . SVG Version: 6.00 Build 0)  -->
<svg version="1.1" id="Capa_1" xmlns="http://www.w3.org/2000/svg" xmlns:xlink="http://www.w3.org/1999/xlink" x="0px" y="0px"
	 viewBox="0 0 39.6 56.5" style="enable-background:new 0 0 39.6 56.5;" xml:space="preserve">
<style type="text/css">
	.st0{fill:#FF7900;}
	.st1{opacity:0.2;enable-background:new    ;}
	.st2{fill:#841F63;stroke:#FFFFFF;stroke-miterlimit:10;}
</style>
<g>
	<path class="st0" d="M6.7,2.4L0,8.1l17.1,15.2c2.5,2.3,2.5,5.9,0,8.1L0,46.7L6.5,53h33.1V2.4H6.7z"/>
</g>
<path class="st1" d="M33.7,23.9L13.9,4.7c-1.5-1.5-3.5-2.3-5.6-2.3C6.1,2.3,4,3,2.5,4.4C0.9,5.7,0,7.6,0,9.6s0.7,3.9,2.2,5.3
	L15.9,29L2.3,43.2c-3.1,3-2.9,7.7,0.3,10.6c1.5,1.4,3.4,2.1,5.5,2.1c2.2,0,4.3-0.9,5.8-2.4l19.8-19.3C36.6,31.3,36.6,26.8,33.7,23.9
	z"/>
<g>
	<g>
		<g id="XMLID_29_">
			<g id="XMLID_30_">
				<path id="XMLID_31_" class="st2" d="M7.2,53c-1.7,0-3.4-0.6-4.7-1.8c-2.8-2.5-2.9-6.5-0.2-9l14.3-15L2.2,12.4
					c-2.5-2.6-2.5-6.6,0.2-9c2.8-2.5,7.1-2.3,9.7,0.2l19.8,19.2c2.5,2.5,2.5,6.4,0,8.8L12.2,51C10.8,52.3,9,53,7.2,53z"/>
			</g>
		</g>
	</g>
</g>
</svg>
