<?xml version="1.0" encoding="utf-8"?>
<!-- Generator: Adobe Illustrator 22.0.1, SVG Export Plug-In . SVG Version: 6.00 Build 0)  -->
<svg version="1.1" id="Capa_1" xmlns="http://www.w3.org/2000/svg" xmlns:xlink="http://www.w3.org/1999/xlink" x="0px" y="0px"
	 viewBox="0 0 1800 1103.1" style="enable-background:new 0 0 1800 1103.1;" xml:space="preserve">
<style type="text/css">
	.st0{fill:url(#SVGID_1_);}
	.st1{opacity:3.000000e-02;}
	.st2{fill:#842063;}
	.st3{opacity:3.000000e-02;fill:#842063;}
	.st4{opacity:0.2;fill:#F1F2F2;}
</style>
<g>
	<linearGradient id="SVGID_1_" gradientUnits="userSpaceOnUse" x1="899.9352" y1="-9.094947e-13" x2="899.9352" y2="1100.0791">
		<stop  offset="0" style="stop-color:#FFFFFF;stop-opacity:0.32"/>
		<stop  offset="9.696422e-02" style="stop-color:#FCFAFC;stop-opacity:0.32"/>
		<stop  offset="0.2277" style="stop-color:#F2EAF1;stop-opacity:0.32"/>
		<stop  offset="0.3778" style="stop-color:#E2D0DF;stop-opacity:0.32"/>
		<stop  offset="0.5421" style="stop-color:#CEADC4;stop-opacity:0.32"/>
		<stop  offset="0.7182" style="stop-color:#B67FA3;stop-opacity:0.32"/>
		<stop  offset="0.9012" style="stop-color:#9B4A7E;stop-opacity:0.32"/>
		<stop  offset="1" style="stop-color:#8C2D6D;stop-opacity:0.32"/>
	</linearGradient>
	<rect x="-0.1" class="st0" width="1800.1" height="1100.1"/>
	<g class="st1">
		<path class="st2" d="M322,598.8h1103.1c23.6,0,42.8,19.2,42.8,42.8l0,0c0,19.2-15.6,34.7-34.7,34.7H1350c-11.6,0-21,9.4-21,21v11
			c0,11.6,9.4,21,21,21h204.4c19.2,0,34.7,15.5,34.7,34.7l0,0c0,19.1-15.4,34.6-34.6,34.7l-321.1,1.4c-11.6,0.1-20.9,9.5-20.9,21
			v5.3c0,11.7,9.5,21.1,21.2,21l189.4-1.4c19.3-0.1,35,15.5,35,34.8l0,8.2c-0.1,19.1-15.6,34.6-34.7,34.6h-251.6
			c-11.6,0-21,9.4-21,21v19.9c0,11.5,9.3,20.9,20.8,21l423.8,5.3c29.8,0.4,53.8,24.7,53.8,54.5v0c0,30.1-24.4,54.5-54.5,54.5H216.2
			c-36.1,0-65.4-29.3-65.4-65.4l0,0c0-36.2,29.5-65.5,65.7-65.4l141.5,0.7c11.7,0.1,21.1-9.4,21.1-21v-9.7c0-11.6-9.4-21-21-21
			H255.4c-19.2,0-34.7-15.5-34.7-34.7v-2.5c0-19.2,15.5-34.7,34.7-34.7h295c11.6,0,21-9.4,21-21l0,0c0-11.6-9.4-21-21-21H350.2
			c-19.2,0-34.7-15.5-34.7-34.7v-7.1c0-19.2,15.5-34.7,34.7-34.7h226.9c11.6,0,21-9.4,21-21v-17.5c0-11.6-9.4-21-21-21H322
			c-19.2,0-34.7-15.5-34.7-34.7v-0.1C287.3,614.3,302.9,598.8,322,598.8z"/>
	</g>
	<g class="st1">
		<path class="st2" d="M1562.4,526H405c-24.8,0-44.9-20.1-44.9-44.9l0,0c0-20.1,16.3-36.4,36.4-36.4h87.4c12.2,0,22.1-9.9,22.1-22.1
			v-11.5c0-12.2-9.9-22.1-22.1-22.1H269.5c-20.1,0-36.4-16.3-36.4-36.4l0,0c0-20,16.2-36.3,36.3-36.4l336.9-1.5
			c12.1-0.1,22-9.9,22-22.1v-5.6c0-12.2-10-22.2-22.2-22.1l-198.7,1.4c-20.3,0.1-36.7-16.3-36.7-36.5l0-8.6
			c0.1-20.1,16.3-36.3,36.4-36.3h264c12.2,0,22.1-9.9,22.1-22.1V142c0-12.1-9.7-21.9-21.8-22.1l-444.7-5.5
			c-31.3-0.4-56.5-25.9-56.5-57.2v0c0-31.6,25.6-57.2,57.2-57.2h1446.2c37.9,0,68.6,30.7,68.6,68.6l0,0c0,38-30.9,68.8-68.9,68.6
			l-148.5-0.8c-12.2-0.1-22.2,9.8-22.2,22.1v10.2c0,12.2,9.9,22.1,22.1,22.1h107.7c20.1,0,36.4,16.3,36.4,36.4v2.6
			c0,20.1-16.3,36.4-36.4,36.4h-309.5c-12.2,0-22.1,9.9-22.1,22.1l0,0c0,12.2,9.9,22.1,22.1,22.1h210c20.1,0,36.4,16.3,36.4,36.4
			v7.4c0,20.1-16.3,36.4-36.4,36.4h-238.1c-12.2,0-22.1,9.9-22.1,22.1V431c0,12.2,9.9,22.1,22.1,22.1h267.7
			c20.1,0,36.4,16.3,36.4,36.4v0.1C1598.9,509.7,1582.5,526,1562.4,526z"/>
	</g>
	<path class="st3" d="M1143.8,566.7v-11.8c0-12.7,7.4-23.7,18.2-28.9H515.5c13.8,0,25,11.2,25,25v22.8c0,13.8-11.2,25-25,25H1173
		c0.5,0,1,0,1.4-0.1C1157.4,597.9,1143.8,583.9,1143.8,566.7z"/>
	<path class="st3" d="M291.1,189.1H-0.1V263h291.2c17.7,0,32.1-14.4,32.1-32.1v-9.7C323.2,203.4,308.8,189.1,291.1,189.1z"/>
	<path class="st4" d="M341.8,522.8H-0.1v76h341.9c17.7,0,32.1-14.4,32.1-32.1v-11.8C373.9,537.2,359.5,522.8,341.8,522.8z"/>
	<path class="st3" d="M1800,189.1h-80.5c-17.7,0-32.1,14.4-32.1,32.1v9.7c0,17.7,14.4,32.1,32.1,32.1h80.5V189.1z"/>
	<path class="st3" d="M1800,313.1h-188.5c-17.7,0-32.1,14.4-32.1,32.1v9.7c0,17.7,14.4,32.1,32.1,32.1H1800V313.1z"/>
	<path class="st4" d="M1800,526h-410.1c-17,0-30.7,13.8-30.7,30.7V568c0,17,13.8,30.7,30.7,30.7H1800V526z"/>
</g>
</svg>
